<svg width="800" height="480" viewBox="0 0 800 480" fill="none" xmlns="http://www.w3.org/2000/svg">
  <defs>
    <linearGradient id="pond" x1="0" y1="0" x2="0" y2="1">
      <stop offset="0%" stop-color="#d7e5e5" />
      <stop offset="100%" stop-color="#9bb4b3" />
    </linearGradient>
    <linearGradient id="bank" x1="0" y1="0" x2="1" y2="1">
      <stop offset="0%" stop-color="#8d7e73" />
      <stop offset="100%" stop-color="#5f5148" />
    </linearGradient>
  </defs>
  <rect width="800" height="480" fill="url(#pond)" />
  <path d="M0 320C160 280 280 280 400 300C520 320 640 330 800 300V480H0V320Z" fill="#7e9a9a" opacity="0.7" />
  <path d="M0 260C120 240 200 240 280 250C360 262 440 280 520 310C600 340 700 360 800 350V480H0V260Z" fill="url(#bank)" />
  <path d="M120 220C160 180 190 160 220 150" stroke="#6a584d" stroke-width="8" stroke-linecap="round" />
  <circle cx="170" cy="140" r="14" fill="#d77a7a" />
  <circle cx="195" cy="158" r="10" fill="#e3a0a0" />
  <circle cx="150" cy="170" r="12" fill="#c96b6b" />
  <path d="M520 330L580 330L610 350L490 350Z" fill="#2a2f33" />
  <path d="M545 290L545 330" stroke="#2a2f33" stroke-width="6" stroke-linecap="round" />
  <path d="M545 300L565 310" stroke="#2a2f33" stroke-width="6" stroke-linecap="round" />
</svg>
